<?xml version="1.0" standalone="no"?><!DOCTYPE svg PUBLIC "-//W3C//DTD SVG 1.1//EN" "http://www.w3.org/Graphics/SVG/1.1/DTD/svg11.dtd"><svg t="1601465648377" class="icon" viewBox="0 0 1024 1024" version="1.1" xmlns="http://www.w3.org/2000/svg" p-id="1297" xmlns:xlink="http://www.w3.org/1999/xlink" width="200" height="200"><defs><style type="text/css"></style></defs><path d="M896 345V233a8 8 0 0 0-8-8H738v45c0 17.673-14.327 32-32 32-17.673 0-32-14.327-32-32v-45H350v45c0 17.673-14.327 32-32 32-17.673 0-32-14.327-32-32v-45H136a8 8 0 0 0-8 8v112h768z m0 64H128v479a8 8 0 0 0 8 8h752a8 8 0 0 0 8-8V409zM738 161h190c17.673 0 32 14.327 32 32v735c0 17.673-14.327 32-32 32H96c-17.673 0-32-14.327-32-32V193c0-17.673 14.327-32 32-32h190V96c0-17.673 14.327-32 32-32 17.673 0 32 14.327 32 32v65h324V96c0-17.673 14.327-32 32-32 17.673 0 32 14.327 32 32v65zM289 473h58c17.673 0 32 14.327 32 32 0 17.673-14.327 32-32 32h-58c-17.673 0-32-14.327-32-32 0-17.673 14.327-32 32-32z m0 128h58c17.673 0 32 14.327 32 32 0 17.673-14.327 32-32 32h-58c-17.673 0-32-14.327-32-32 0-17.673 14.327-32 32-32z m0 128h58c17.673 0 32 14.327 32 32 0 17.673-14.327 32-32 32h-58c-17.673 0-32-14.327-32-32 0-17.673 14.327-32 32-32z m194-256h58c17.673 0 32 14.327 32 32 0 17.673-14.327 32-32 32h-58c-17.673 0-32-14.327-32-32 0-17.673 14.327-32 32-32z m0 128h58c17.673 0 32 14.327 32 32 0 17.673-14.327 32-32 32h-58c-17.673 0-32-14.327-32-32 0-17.673 14.327-32 32-32z m0 128h58c17.673 0 32 14.327 32 32 0 17.673-14.327 32-32 32h-58c-17.673 0-32-14.327-32-32 0-17.673 14.327-32 32-32z m194-256h58c17.673 0 32 14.327 32 32 0 17.673-14.327 32-32 32h-58c-17.673 0-32-14.327-32-32 0-17.673 14.327-32 32-32z m0 128h58c17.673 0 32 14.327 32 32 0 17.673-14.327 32-32 32h-58c-17.673 0-32-14.327-32-32 0-17.673 14.327-32 32-32z m0 128h58c17.673 0 32 14.327 32 32 0 17.673-14.327 32-32 32h-58c-17.673 0-32-14.327-32-32 0-17.673 14.327-32 32-32z" p-id="1298"></path></svg>