<?xml version="1.0" standalone="no"?><!DOCTYPE svg PUBLIC "-//W3C//DTD SVG 1.1//EN" "http://www.w3.org/Graphics/SVG/1.1/DTD/svg11.dtd"><svg t="1601379913079" class="icon" viewBox="0 0 1024 1024" version="1.1" xmlns="http://www.w3.org/2000/svg" p-id="3296" xmlns:xlink="http://www.w3.org/1999/xlink" width="200" height="200"><defs><style type="text/css"></style></defs><path d="M940.35 408.21H84.21c-11.05 0-20 8.95-20 20s8.95 20 20 20h856.14c11.05 0 20-8.95 20-20s-8.95-20-20-20zM940.35 576.05H84.21c-11.05 0-20 8.95-20 20s8.95 20 20 20h856.14c11.05 0 20-8.95 20-20s-8.95-20-20-20z" fill="#333333" p-id="3297"></path><path d="M940.33 576.05c-5.12 0-10.24 1.95-14.14 5.86L729.06 779.04c-7.81 7.81-7.81 20.47 0 28.28a19.92 19.92 0 0 0 14.14 5.86c5.12 0 10.24-1.95 14.14-5.86l197.13-197.13c7.81-7.81 7.81-20.47 0-28.28-3.9-3.91-9.02-5.86-14.14-5.86zM281.34 211.08c-5.12 0-10.24 1.95-14.14 5.86L70.07 414.07c-7.81 7.81-7.81 20.47 0 28.28 3.91 3.91 9.02 5.86 14.14 5.86s10.24-1.95 14.14-5.86l197.13-197.13c7.81-7.81 7.81-20.47 0-28.28-3.9-3.91-9.02-5.86-14.14-5.86z" fill="#333333" p-id="3298"></path></svg>